<?xml version="1.0" encoding="iso-8859-1"?>
<!-- Generator: Adobe Illustrator 16.0.0, SVG Export Plug-In . SVG Version: 6.00 Build 0)  -->
<!DOCTYPE svg PUBLIC "-//W3C//DTD SVG 1.1//EN" "http://www.w3.org/Graphics/SVG/1.1/DTD/svg11.dtd">
<svg version="1.1" id="Capa_1" xmlns="http://www.w3.org/2000/svg" xmlns:xlink="http://www.w3.org/1999/xlink" x="0px" y="0px"
	 width="589.629px" height="589.629px" viewBox="0 0 589.629 589.629" style="enable-background:new 0 0 589.629 589.629;"
	 xml:space="preserve">
<g>
	<path d="M568.671,228.225c-0.238-2.629-1.195-5.259-2.749-7.411l-68.372-95.027c-3.824-5.379-10.758-7.531-16.973-5.379
		L349.81,164.993c0-0.12,0-0.358-0.119-0.478l-8.727-44.705c-0.956-5.021-4.422-9.204-9.203-10.997
		c-4.781-1.913-10.16-1.195-14.344,1.913l-21.277,15.659c-0.956-0.12-1.912-0.12-2.868,0l-21.157-15.659
		c-4.064-2.988-9.562-3.706-14.224-1.913s-8.248,5.977-9.204,10.997l-8.845,44.705c0,0.12,0,0.358-0.12,0.478l-130.767-44.585
		c-6.216-2.152-13.148,0.12-16.974,5.379l-68.372,95.027c-1.554,2.151-2.51,4.781-2.75,7.411L0.061,465.615
		c-0.598,6.574,3.228,12.789,9.443,15.18c6.096,2.391,13.148,0.479,17.213-4.661l111.044-141.525l23.189,56.658
		c1.673,4.184,5.14,7.291,9.443,8.606c4.303,1.314,8.845,0.717,12.67-1.793l62.515-41.119l8.965,27.611
		c1.435,4.304,4.662,7.77,8.846,9.324c4.184,1.554,8.965,1.195,12.79-1.076l18.647-10.877l18.646,10.877
		c3.945,2.271,8.606,2.63,12.79,1.076c4.184-1.555,7.53-5.021,8.846-9.324l8.965-27.611l62.515,41.119
		c3.705,2.51,8.367,3.107,12.67,1.793c4.304-1.315,7.77-4.423,9.443-8.606l23.189-56.658l111.044,141.525
		c2.869,3.705,7.292,5.737,11.714,5.737c1.793,0,3.706-0.358,5.499-1.076c6.096-2.391,9.921-8.605,9.442-15.18L568.671,228.225z
		 M460.376,296.836c-2.869-3.706-7.172-5.738-11.714-5.738c-1.076,0-2.271,0.12-3.347,0.359l-1.195,0.239
		c-4.781,1.076-8.606,4.422-10.399,8.845l-25.46,62.396l-63.591-41.955c-3.944-2.511-8.726-3.108-13.148-1.674
		c-4.423,1.554-7.77,5.021-9.323,9.443l-9.324,28.567l-10.279-5.977c-4.662-2.749-10.399-2.749-15.061,0l-10.28,5.977l-9.323-28.567
		c-1.435-4.423-4.901-7.89-9.323-9.443c-4.423-1.554-9.204-0.956-13.148,1.674l-63.591,41.955l-25.699-62.156
		c-1.793-4.542-5.737-7.77-10.399-8.845l-1.195-0.239c-5.618-1.315-11.594,0.717-15.18,5.379L34.247,418.041l16.137-183.122
		l59.526-82.715l150.609,51.279c3.945,1.315,8.248,0.956,11.834-0.957c3.705-1.912,6.335-5.379,7.411-9.323l1.315-5.021
		c1.195-4.303,0.358-8.845-2.271-12.551l-8.367-11.833l2.988-15.18l8.248,6.096c3.825,2.75,8.606,3.586,13.148,2.271
		c4.423,1.314,9.323,0.478,13.148-2.271l8.248-6.096l2.988,15.18l-8.367,11.833c-2.63,3.586-3.467,8.248-2.271,12.551l1.314,5.021
		c1.076,3.944,3.706,7.411,7.411,9.323c3.706,1.913,7.89,2.271,11.834,0.957l150.609-51.279l59.526,82.715l16.137,183.122
		L460.376,296.836z"/>
</g>
<g>
</g>
<g>
</g>
<g>
</g>
<g>
</g>
<g>
</g>
<g>
</g>
<g>
</g>
<g>
</g>
<g>
</g>
<g>
</g>
<g>
</g>
<g>
</g>
<g>
</g>
<g>
</g>
<g>
</g>
</svg>
